<?xml version="1.0" encoding="UTF-8"?>
<svg id="Capa_2" data-name="Capa 2" xmlns="http://www.w3.org/2000/svg" viewBox="0 0 118 118">
  <defs>
    <style>
      .cls-1 {
        fill: #d3d3d3;
      }

      .cls-2 {
        fill: #2b2b2b;
      }
    </style>
  </defs>
  <g id="Capa_1-2" data-name="Capa 1">
    <g>
      <rect class="cls-1" y="0" width="118" height="118"/>
      <path class="cls-2" d="M45.78,108.59h3.59c2.53-.14,4.94-.73,7.19-1.88,2.92-1.49,4.99-3.92,6.21-6.95.92-2.26,1.19-4.58,1.35-7.06v-38.52s-11.13,0-11.13,0v37.98c0,2.92-.85,5.75-3.78,6.37l-1.9.22c-4,.08-5.53-2.57-7.34-5.7l-9.03,5.47c2.93,6.15,7.98,9.56,14.83,10.08Z"/>
      <path class="cls-2" d="M105.19,102.96c-4.34,4.9-11.2,6.08-17.54,5.59-7.57-.58-14.07-4.38-17.58-11.21l9.01-5.21,1.77,2.42c1.34,1.48,2.77,2.76,4.66,3.46,2.5.93,5.16,1.12,7.71.38,1.47-.43,2.73-1.19,3.57-2.49l.48-.96c.8-2.37-.2-4.75-2.23-6.09-1.58-1.04-3.23-1.79-4.96-2.54l-2.32-.99-5.56-2.67c-1.91-.92-3.48-2.26-4.93-3.8s-2.46-3.25-3.08-5.29c-.9-2.95-1.05-6.15-.3-9.15,1.06-4.28,4-7.58,7.99-9.34,1.95-.86,4-1.31,6.14-1.5l2.64-.06c2.57.16,5.08.57,7.43,1.68,3.16,1.53,5.53,4.03,7.3,7.22l-8.63,5.54c-1.57-2.7-3.26-4.5-6.38-4.69-2.07-.23-4.25.43-5.35,2.24-1.38,2.29-.67,5.24,1.53,6.75,1.05.72,2.09,1.29,3.25,1.8l5.14,2.24,3.48,1.67c1.98.95,3.73,2.15,5.35,3.62,2.27,2.06,3.83,4.56,4.45,7.6.98,4.79.26,10.05-3.04,13.78Z"/>
    </g>
  </g>
</svg>