<?xml version="1.0" encoding="UTF-8"?>
<svg id="Capa_2" data-name="Capa 2" xmlns="http://www.w3.org/2000/svg" viewBox="0 0 375.52 94.32">
  <defs>
    <style>
      .cls-1 {
        fill: #fff;
      }
    </style>
  </defs>
  <g id="Capa_1-2" data-name="Capa 1">
    <g>
      <g>
        <path class="cls-1" d="M41.07,38.88c0,1.36-.25,3.66-.51,4.25h.17c2.47-8.16,9.27-15.82,17.26-15.82,5.87,0,9.1,3.57,9.1,11.31,0,3.57-.34,7.23-2.98,26.79h5.87l-.59,6.97h-15.22c2.04-11.74,3.91-30.1,3.91-32.74s-.76-4.34-3.06-4.34c-6.38,0-14.88,16.07-16.67,31.21l-.68,5.87h-8.76c1.53-14.03,3.66-25.26,3.66-32.31,0-2.3-.51-4.76-3.15-4.76-6.8,0-15.05,16.92-16.92,30.44l-.94,6.63H2.81c.34-1.87.93-6.55,1.36-10.88l2.3-26.36H0l.6-6.97h15.05c-.85,10.29-1.36,12.42-2.72,18.71h.17c4.08-12.67,10.97-19.56,19.05-19.56,5.78,0,8.93,3.4,8.93,11.56Z"/>
        <path class="cls-1" d="M131.98,27.31c-8.07,0-14.96,7.06-18.45,18.71h-.17c.34-1.79,1.7-6.72,2.38-14.54l2.04-24.49h-19.21c-12.24,0-18.2,6.2-18.88,21.17h-6.12l-.6,6.97h6.21l-2.21,29.17c-.77,10.46-1.53,22.54-11.14,22.54-1.7,0-4.08-.6-6.04-1.02l-.68,7.31c2.64.59,4.42,1.19,7.23,1.19,13.69,0,17.77-8.25,19.22-25.85l2.63-33.34h10.21l.59-6.97h-10.29c1.02-9.95,2.89-14.2,12.42-14.2h7.31l-3.91,46c-.34,3.75-.68,6.04-1.28,9.95,2.89,1.79,10.63,3.32,15.48,3.32,14.97,0,24.23-13.52,24.23-30.36,0-9.52-4.42-15.56-10.97-15.56ZM119.4,66.26c-2.04,0-4.93-.68-6.72-1.28,1.62-14.03,9.61-29.68,16.92-29.68,3.15,0,4.34,2.38,4.34,8.59,0,11.48-5.44,22.37-14.54,22.37Z"/>
      </g>
      <g>
        <path class="cls-1" d="M231.03,33.05c-6.77,0-11.67,4.63-12.94,10.79h25.27c-1.34-7.51-6.57-10.79-12.33-10.79Z"/>
        <path class="cls-1" d="M300.61,33.11c-7.84,0-13.54,5.9-13.54,13.94s5.7,13.88,13.74,13.88c6.97,0,13.07-4.49,13.07-13.61s-6.03-14.21-13.27-14.21Z"/>
        <path class="cls-1" d="M191.75,33.11c-7.84,0-13.61,6.03-13.61,14.35s5.77,14.21,13.61,14.21c7.17,0,13.21-4.96,13.21-14.21s-6.03-14.35-13.21-14.35Z"/>
        <path class="cls-1" d="M329.64,0h-134.53c-25.24,0-45.88,20.65-45.88,45.88h0c0,25.24,20.65,45.88,45.88,45.88h134.53c25.24,0,45.88-20.65,45.88-45.88h0c0-25.24-20.65-45.88-45.88-45.88ZM208.84,65.09h-3.96v-6.57c-2.41,4.42-7.64,7.24-13.61,7.24-9.72,0-17.5-7.64-17.5-18.3s7.78-18.44,17.5-18.44c5.83,0,10.86,2.68,13.41,6.9-.07-2.48-.13-4.96-.13-7.58v-14.88h4.29v51.62ZM231.57,61.74c5.7,0,10.32-2.88,12.94-7.64l3.22,2.08c-2.68,4.69-7.98,9.52-16.22,9.52-10.73,0-17.9-7.98-17.9-18.17s7.37-18.37,17.5-18.37c8.71,0,16.42,5.9,16.69,18.23h-30.03v.2c0,7.91,5.5,14.15,13.81,14.15ZM257.37,65.49c-1.61,0-4.16-.2-6.77-.4v-3.89c2.68.27,5.16.4,6.64.4,5.3,0,7.91-1.81,7.91-5.56,0-2.68-1.47-4.49-5.23-6.84l-2.41-1.54c-4.89-3.02-7.11-5.9-7.11-9.72,0-5.23,4.16-8.58,10.99-8.58,1.41,0,3.42.13,5.3.34v3.62c-2.01-.2-3.55-.27-4.63-.27-4.83,0-7.44,1.81-7.44,4.89,0,2.35,1.61,4.16,5.43,6.5l2.55,1.61c4.83,3.08,6.91,5.9,6.91,9.92,0,5.9-4.49,9.52-12.13,9.52ZM277.89,65.09h-4.29V29.69h4.29v35.4ZM317.77,61.87c0,9.99-5.83,16.42-18.97,16.42h-6.44v-4.02h6.57c9.99,0,14.41-4.02,14.61-12.2l.07-4.02c-2.48,4.29-7.44,6.91-13.34,6.91-9.86,0-17.56-7.37-17.56-17.9s7.78-18.03,17.5-18.03c5.97,0,11.2,2.88,13.61,7.31v-6.64h3.95v32.18ZM350.96,65.09h-4.29v-21.25c0-6.97-3.22-10.73-9.05-10.73s-9.05,3.75-9.05,10.73v21.25h-4.29v-21.39c0-9.25,4.89-14.68,13.34-14.68s13.34,5.43,13.34,14.68v21.39Z"/>
      </g>
    </g>
  </g>
</svg>